<?xml version="1.0" encoding="UTF-8" standalone="no"?>
<svg
   width="489.996pt"
   height="489.996pt"
   version="1.1"
   viewBox="0 0 489.996 489.996"
   id="svg4"
   sodipodi:docname="done.svg"
   inkscape:export-filename="done.png"
   inkscape:export-xdpi="96"
   inkscape:export-ydpi="96"
   inkscape:version="1.2.2 (b0a8486541, 2022-12-01)"
   xmlns:inkscape="http://www.inkscape.org/namespaces/inkscape"
   xmlns:sodipodi="http://sodipodi.sourceforge.net/DTD/sodipodi-0.dtd"
   xmlns="http://www.w3.org/2000/svg"
   xmlns:svg="http://www.w3.org/2000/svg">
  <defs
     id="defs8" />
  <sodipodi:namedview
     id="namedview6"
     pagecolor="#505050"
     bordercolor="#ffffff"
     borderopacity="1"
     inkscape:showpageshadow="0"
     inkscape:pageopacity="0"
     inkscape:pagecheckerboard="1"
     inkscape:deskcolor="#505050"
     inkscape:document-units="pt"
     showgrid="false"
     inkscape:zoom="0.66428571"
     inkscape:cx="307.84946"
     inkscape:cy="404.19355"
     inkscape:window-width="1354"
     inkscape:window-height="705"
     inkscape:window-x="6"
     inkscape:window-y="32"
     inkscape:window-maximized="1"
     inkscape:current-layer="svg4" />
  <path
     d="m 244.998,489.996 c 64.977,0 127.29,-25.812 173.24,-71.758 45.945,-45.949 71.758,-108.27 71.758,-173.24 0,-64.97 -25.812,-127.29 -71.758,-173.24 C 372.289,25.813 309.968,0 244.998,0 180.028,0 117.708,25.812 71.758,71.758 25.813,117.707 0,180.028 0,244.998 c 0.0703,64.957 25.902,127.23 71.836,173.16 45.93,45.934 108.21,71.766 173.16,71.836 z m -131.95,-255.85 c 3.2773,-3.2578 7.7148,-5.0859 12.336,-5.0859 4.625,0 9.0586,1.8281 12.34,5.0859 l 64.398,64.398 150.5,-144.2 v 0.004 c 3.3242,-3.2148 7.7852,-4.9805 12.41,-4.918 4.6211,0.0664 9.0312,1.9609 12.266,5.2656 3.2109,3.375 4.957,7.8789 4.8555,12.535 -0.0977,4.6523 -2.0312,9.082 -5.3828,12.316 l -162.75,156.1 v -0.004 c -3.2109,3.1797 -7.5547,4.9453 -12.074,4.9023 -4.6562,0.0625 -9.1406,-1.7695 -12.426,-5.0742 l -76.473,-76.652 c -3.3555,-3.2266 -5.2539,-7.6797 -5.2539,-12.336 0,-4.6563 1.8984,-9.1133 5.2539,-12.34 z"
     id="path2"
     style="fill:#006600;fill-opacity:1" />
</svg>
